<svg version="1" xmlns="http://www.w3.org/2000/svg" width="326.667" height="326.667" viewBox="0 0 245.000000 245.000000"><path d="M103.7 1.5c-37.9 6.2-72 30.6-89.5 64.2-25 48-16.1 105.5 22.3 143.8 42.7 42.7 110.9 47.6 159.4 11.5 46.6-34.8 62.2-97.4 37.6-150.8-15.7-33.9-48.3-59.4-86.5-67.7-10.5-2.3-32.4-2.8-43.3-1zM138 69.6l2.5 2.4.3 46 .3 45.9 3 2.5c5.8 4.9 15 2.6 16.8-4.2.7-2.3 1.1-20 1.1-46.7 0-47.6-.2-46.3 6.4-48.5 3.9-1.2 7.1-.3 10.1 3 1.9 2.1 2 3.9 2.3 45.9.2 29.6 0 45.3-.8 48.8-2.5 11.8-12.2 18.7-25.9 18.6-8.2-.1-13.2-1.6-18.7-5.8-4-3.1-5.5-3.1-8-.4-5.6 6.3-21.2 8.3-30.9 4-6.2-2.8-10.2-6.4-12.6-11.6-1.7-3.7-1.9-7.2-1.9-45.8V82h-3.9c-6.6 0-9.3 3.2-10.2 12-.7 5.9-1.3 7.9-3.4 9.9-3.6 3.6-9.5 3.5-13.2-.2-2.6-2.5-2.8-3.3-2.7-10.5.1-9.1 2.1-13.9 8.2-19.4 5.9-5.3 9.8-6.3 24.9-6.3 13.1 0 13.3 0 16 2.8l2.8 2.7.5 45.6.5 45.6 2.8 2.4c5.5 4.7 14.8 2.3 16.6-4.4.7-2.3 1.1-19.9 1.1-46.5 0-28.7.4-43.5 1.1-44.8 1.4-2.7 6.8-5 9.9-4.3 1.4.3 3.6 1.6 5 3z"/></svg>